<svg xmlns="http://www.w3.org/2000/svg" width="8.37593" height="8.88816" viewBox="0 0 8.37593 8.88816">
  <g id="Layer_2" data-name="Layer 2">
    <g id="Layer_1-2" data-name="Layer 1">
      <g id="ViHPmh">
        <path d="M5.43714,8.88816c.30413-1.83279.695-3.55.842-5.28785A2.1048,2.1048,0,0,0,4.48354,1.27636,2.05738,2.05738,0,0,0,2.18265,3.34117,14.026,14.026,0,0,0,2.804,7.65125c.122.36033.16547.69137.34922,1.18793H.31485L0,7.85245l1.50093-.1888C.54356,5.22193-.35275,2.79779,2.09752.666A3.92513,3.92513,0,0,1,6.50374.68739C8.84958,2.82252,8.09991,5.24032,6.838,7.67806l1.538.11378L8.07572,8.88816Z"/>
      </g>
    </g>
  </g>
</svg>
