<svg xmlns="http://www.w3.org/2000/svg" width="7.43977" height="2.80184" viewBox="0 0 7.43977 2.80184">
  <g id="Layer_2" data-name="Layer 2">
    <g id="Layer_1-2" data-name="Layer 1">
      <g id="W4M5Hn">
        <path d="M7.43111,1.5931c.045.06393-.09215.28413-.25416.35527a6.16269,6.16269,0,0,1-1.80208.83028,2.23475,2.23475,0,0,1-1.30593-.16343c-.413-.34371-.76832-.58542-1.18325-.92677a.85875.85875,0,0,0-1.14217-.04921,6.08707,6.08707,0,0,1-.57743.337c-.591.29777-.74739.26682-1.03-.21637C-.04157,1.4562-.09342,1.169.2808.94279c.353-.21338.67752-.47461,1.034-.68141A1.60308,1.60308,0,0,1,3.30439.44515c.48509.43368.93158,1.01514,1.57393,1.10746a1.50839,1.50839,0,0,0,.59377-.03093c.23139-.03565.434-.28155.65728-.42544C6.33126.96616,6.8258.74416,6.9049.812A3.29686,3.29686,0,0,1,7.43111,1.5931Z"/>
      </g>
    </g>
  </g>
</svg>
